<svg id="visual" viewBox="0 0 900 600" width="900" height="600" xmlns="http://www.w3.org/2000/svg" xmlns:xlink="http://www.w3.org/1999/xlink" version="1.1"><rect x="0" y="0" width="900" height="600" fill="#001220"></rect><path d="M0 432L21.5 432.7C43 433.3 86 434.7 128.8 437.2C171.7 439.7 214.3 443.3 257.2 442C300 440.7 343 434.3 385.8 423.3C428.7 412.3 471.3 396.7 514.2 397C557 397.3 600 413.7 642.8 421.3C685.7 429 728.3 428 771.2 418.2C814 408.3 857 389.7 878.5 380.3L900 371L900 601L878.5 601C857 601 814 601 771.2 601C728.3 601 685.7 601 642.8 601C600 601 557 601 514.2 601C471.3 601 428.7 601 385.8 601C343 601 300 601 257.2 601C214.3 601 171.7 601 128.8 601C86 601 43 601 21.5 601L0 601Z" fill="#fa7268"></path><path d="M0 478L21.5 469.8C43 461.7 86 445.3 128.8 437.3C171.7 429.3 214.3 429.7 257.2 431.8C300 434 343 438 385.8 436C428.7 434 471.3 426 514.2 426.8C557 427.7 600 437.3 642.8 443.8C685.7 450.3 728.3 453.7 771.2 455C814 456.3 857 455.7 878.5 455.3L900 455L900 601L878.5 601C857 601 814 601 771.2 601C728.3 601 685.7 601 642.8 601C600 601 557 601 514.2 601C471.3 601 428.7 601 385.8 601C343 601 300 601 257.2 601C214.3 601 171.7 601 128.8 601C86 601 43 601 21.5 601L0 601Z" fill="#ef5f67"></path><path d="M0 468L21.5 471C43 474 86 480 128.8 475.8C171.7 471.7 214.3 457.3 257.2 451.3C300 445.3 343 447.7 385.8 452.7C428.7 457.7 471.3 465.3 514.2 467.3C557 469.3 600 465.7 642.8 464.8C685.7 464 728.3 466 771.2 467.5C814 469 857 470 878.5 470.5L900 471L900 601L878.5 601C857 601 814 601 771.2 601C728.3 601 685.7 601 642.8 601C600 601 557 601 514.2 601C471.3 601 428.7 601 385.8 601C343 601 300 601 257.2 601C214.3 601 171.7 601 128.8 601C86 601 43 601 21.5 601L0 601Z" fill="#e34c67"></path><path d="M0 515L21.5 509.7C43 504.3 86 493.7 128.8 491.2C171.7 488.7 214.3 494.3 257.2 503.2C300 512 343 524 385.8 524.7C428.7 525.3 471.3 514.7 514.2 508C557 501.3 600 498.7 642.8 498.5C685.7 498.3 728.3 500.7 771.2 501C814 501.3 857 499.7 878.5 498.8L900 498L900 601L878.5 601C857 601 814 601 771.2 601C728.3 601 685.7 601 642.8 601C600 601 557 601 514.2 601C471.3 601 428.7 601 385.8 601C343 601 300 601 257.2 601C214.3 601 171.7 601 128.8 601C86 601 43 601 21.5 601L0 601Z" fill="#d53867"></path><path d="M0 536L21.5 540.7C43 545.3 86 554.7 128.8 553.5C171.7 552.3 214.3 540.7 257.2 539.8C300 539 343 549 385.8 551.3C428.7 553.7 471.3 548.3 514.2 543C557 537.7 600 532.3 642.8 529.3C685.7 526.3 728.3 525.7 771.2 529.3C814 533 857 541 878.5 545L900 549L900 601L878.5 601C857 601 814 601 771.2 601C728.3 601 685.7 601 642.8 601C600 601 557 601 514.2 601C471.3 601 428.7 601 385.8 601C343 601 300 601 257.2 601C214.3 601 171.7 601 128.8 601C86 601 43 601 21.5 601L0 601Z" fill="#c62368"></path></svg>