<?xml version="1.0" encoding="UTF-8" standalone="no"?>
<!-- Uploaded to: SVG Repo, www.svgrepo.com, Generator: SVG Repo Mixer Tools -->

<svg
   fill="#ffffff"
   height="800px"
   width="800px"
   version="1.1"
   id="Layer_1"
   viewBox="0 0 512 512"
   xml:space="preserve"
   sodipodi:docname="three-triangles.svg"
   inkscape:version="1.3 (0e150ed6c4, 2023-07-21)"
   xmlns:inkscape="http://www.inkscape.org/namespaces/inkscape"
   xmlns:sodipodi="http://sodipodi.sourceforge.net/DTD/sodipodi-0.dtd"
   xmlns="http://www.w3.org/2000/svg"
   xmlns:svg="http://www.w3.org/2000/svg"><defs
   id="defs2" /><sodipodi:namedview
   id="namedview2"
   pagecolor="#ffffff"
   bordercolor="#ffffff"
   borderopacity="0.25"
   inkscape:showpageshadow="2"
   inkscape:pageopacity="0.0"
   inkscape:pagecheckerboard="0"
   inkscape:deskcolor="#d1d1d1"
   inkscape:zoom="2.545"
   inkscape:cx="743.222"
   inkscape:cy="162.86837"
   inkscape:window-width="1366"
   inkscape:window-height="705"
   inkscape:window-x="-8"
   inkscape:window-y="-8"
   inkscape:window-maximized="1"
   inkscape:current-layer="Layer_1" />&#10;<g
   id="g2">&#10;	<g
   id="g1"
   transform="translate(4.0235759,-3.0176817)"
   style="stroke-width:0.96;stroke-dasharray:none">&#10;		<path
   stroke="#ffffff"
   stroke-width="16"
   d="M 509.84911,355.61795 322.56017,20.347 c -1.692,-3.197 0.53241,-3.195212 -3.08259,-3.228212 -3.154,0.005 -1.41958,-0.09379 -3.16958,3.070212 L 248.78264,143.40873 183.69927,20.662947 c -1.711,-3.212 -2.14161,-9.536927 -2.15369,-5.892947 l -0.01,3.017682 C 181.52351,21.431662 180.078,16.958 178.376,20.179 L -0.86678782,360.56342 c -1.61499998,3.053 -2.02194698,4.58821 -0.23394698,7.54521 1.77900002,2.961 2.4663178,1.64437 5.9182652,1.62532 L 95.947265,369.231 c 5.441915,-0.03 5.983495,3.58944 5.983495,-1.28292 0,-4.87325 0.0214,-1.74584 -5.731177,-1.89835 L 0.83058349,366.06273 180.8371,24.361156 246.97263,145.77564 57.794265,486.93758 c -1.692,3.048 -4.149735,5.10815 -2.379735,8.10915 1.769,3.005 5,2.18327 8.481,2.18327 h 374.36394 c 3.452,0 4.65121,0.87073 6.43021,-2.09127 1.779,-2.966 -0.13679,-4.54821 -1.76179,-7.60121 L 400.432,405.049 c -2.558,-4.798 -0.9848,-4.59621 -5.7728,-2.03421 -4.798,2.552 -1.25302,-0.299 1.51871,4.9053 l 43.03147,84.46248 -376.567667,-1.00589 186.306867,-343.05613 91.21414,160.94554 c 2.56223,4.81978 0.55596,4.85649 5.36396,2.31249 4.798,-2.553 0.8332,0.42783 -1.71767,-4.3618 L 250.26364,146.03064 319.40775,22.999856 505.636,357.51045 c 0,0 -210.99077,0.8268 -317.24057,0.99297 -5.75463,0.009 -4.26596,2.39706 -4.26596,2.14989 0,-0.24722 -0.9866,1.56009 4.45537,1.53444 106.70149,-0.50293 317.33827,-0.50295 317.33827,-0.50295 -2.94804,0.0152 3.26672,0.9894 4.66089,-1.33185 1.40277,-2.31575 -3.18251,-9.362 -0.73489,-4.735 z"
   id="path1"
   style="opacity:1;fill:#ffffff;fill-opacity:1;stroke:#141414;stroke-width:0.896;stroke-linecap:butt;stroke-linejoin:miter;stroke-dasharray:none;stroke-opacity:0.991701"
   sodipodi:nodetypes="ccccccsscccsssscccccssccccccccccccccsssscc" />&#10;	</g>&#10;</g>&#10;</svg>
